<svg width="24" height="24" viewBox="0 0 24 24" fill="none" xmlns="http://www.w3.org/2000/svg">
<rect width="24" height="24" rx="12" fill="white" style="fill:white;fill-opacity:1;"/>
<path d="M4.73973 13.6398C3.89973 11.7198 3.34973 9.6498 3.11973 7.5598C3.73973 7.5898 4.47973 7.5698 5.29973 7.4598C5.40973 7.2398 5.52973 7.0198 5.66973 6.7998C4.55973 6.9998 3.56973 7.0098 2.81973 6.9498L2.46973 6.9198L2.49973 7.2698C2.70973 9.6098 3.31973 11.9198 4.26973 14.0498C4.46973 13.9298 4.61973 13.7998 4.72973 13.6398H4.73973Z" fill="#139BFD" style="fill:#139BFD;fill:color(display-p3 0.0745 0.6078 0.9922);fill-opacity:1;"/>
<path d="M21.1798 6.95004C20.4098 7.01004 19.3998 7.00004 18.2598 6.79004C18.4098 7.01004 18.5298 7.23004 18.6398 7.45004C19.4798 7.57004 20.2398 7.59004 20.8798 7.56004C20.6598 9.68004 20.0998 11.76 19.2398 13.69C19.3598 13.83 19.5098 13.96 19.7098 14.07C20.6698 11.94 21.2898 9.61004 21.4998 7.26004L21.5298 6.91004L21.1798 6.94004V6.95004Z" fill="#139BFD" style="fill:#139BFD;fill:color(display-p3 0.0745 0.6078 0.9922);fill-opacity:1;"/>
<path d="M18.5793 15.05C18.5193 15.15 18.4693 15.26 18.4093 15.36C18.2193 15.71 18.0093 16.04 17.7993 16.38C17.7093 16.54 17.6093 16.71 17.4793 16.86C16.1593 18.79 14.5093 20.47 12.5693 21.86C12.3793 21.99 12.1893 22.13 11.9993 22.25C11.8093 22.12 11.6193 21.99 11.4293 21.86C9.57934 20.54 7.99934 18.96 6.70934 17.13C6.36934 16.79 6.12934 16.42 5.98934 16.04C5.84934 15.82 5.71934 15.59 5.58934 15.36C5.52934 15.25 5.46934 15.15 5.41934 15.04C5.17934 15.11 4.97934 15.15 4.81934 15.16C4.90934 15.32 4.99934 15.49 5.08934 15.65C6.57934 18.3 8.59934 20.55 11.0993 22.34C11.3493 22.52 11.5993 22.69 11.8493 22.85L12.0093 22.95L12.1693 22.85C12.4193 22.69 12.6693 22.51 12.9193 22.34C15.4193 20.56 17.4393 18.31 18.9293 15.65C19.0193 15.49 19.1093 15.33 19.1893 15.16C19.0293 15.16 18.8193 15.12 18.5793 15.05Z" fill="#139BFD" style="fill:#139BFD;fill:color(display-p3 0.0745 0.6078 0.9922);fill-opacity:1;"/>
<path d="M13.2403 14.4599C13.1803 14.4599 13.1103 14.4599 13.0403 14.4599C12.7703 14.4599 12.5003 14.3799 12.2503 14.2599C12.0803 14.1699 11.8703 14.1699 11.7003 14.2599C11.4403 14.3899 11.1703 14.4699 10.9003 14.4799C10.8403 14.4799 10.7803 14.4799 10.7203 14.4799C10.7203 14.4799 10.7103 14.4799 10.7003 14.4799C10.5503 14.4799 10.4703 14.6399 10.4903 14.9699C10.5703 15.8799 11.1003 16.2499 11.1103 16.1999C11.0703 15.9799 11.1903 15.7899 11.1903 15.7899C11.4403 16.3399 11.8303 16.5799 11.9503 16.6399C11.9503 16.6399 11.9503 16.6399 11.9603 16.6399C11.9603 16.6399 11.9603 16.6399 11.9703 16.6399C12.0903 16.5799 12.4703 16.3399 12.7303 15.7899C12.7303 15.7899 12.8503 15.9799 12.8103 16.1999C12.8103 16.2499 13.2903 15.9199 13.4103 14.9599C13.4103 14.9599 13.5103 14.4699 13.2303 14.4699L13.2403 14.4599ZM11.9703 14.6699C11.7903 14.6699 11.6103 14.6699 11.4203 14.6699C11.5803 14.5399 11.7803 14.4799 11.9703 14.4799C12.1603 14.4799 12.3603 14.5399 12.5203 14.6799C12.3303 14.6899 12.1503 14.6799 11.9703 14.6799V14.6699Z" fill="#139BFD" style="fill:#139BFD;fill:color(display-p3 0.0745 0.6078 0.9922);fill-opacity:1;"/>
<path d="M10.6104 10.3299C10.6404 10.2799 10.6104 10.2099 10.5604 10.1799C10.5404 10.1699 10.5104 10.1599 10.4904 10.1499C10.4904 10.1699 10.5104 10.1799 10.5104 10.1999C10.5104 10.2599 10.4604 10.3099 10.4004 10.3099C10.3404 10.3099 10.2904 10.2599 10.2904 10.1999C10.2904 10.1599 10.3104 10.1199 10.3504 10.1099C10.3004 10.1099 10.2404 10.1099 10.1704 10.1099C10.1604 10.1399 10.1504 10.1699 10.1504 10.2099C10.1504 10.2999 10.2004 10.3699 10.2604 10.4199C10.3404 10.4599 10.3904 10.4599 10.4704 10.4399C10.5304 10.4199 10.5704 10.3799 10.6004 10.3299H10.6104Z" fill="#139BFD" style="fill:#139BFD;fill:color(display-p3 0.0745 0.6078 0.9922);fill-opacity:1;"/>
<path d="M13.2903 10.3299C13.2603 10.2799 13.2903 10.2099 13.3403 10.1799C13.3603 10.1699 13.3903 10.1599 13.4103 10.1499C13.4103 10.1699 13.3903 10.1799 13.3903 10.1999C13.3903 10.2599 13.4403 10.3099 13.5003 10.3099C13.5603 10.3099 13.6103 10.2599 13.6103 10.1999C13.6103 10.1599 13.5903 10.1199 13.5503 10.1099C13.6003 10.1099 13.6603 10.1099 13.7303 10.1099C13.7403 10.1399 13.7503 10.1699 13.7503 10.2099C13.7503 10.2999 13.7003 10.3699 13.6403 10.4199C13.5603 10.4599 13.5103 10.4599 13.4303 10.4399C13.3703 10.4199 13.3303 10.3799 13.3003 10.3299H13.2903Z" fill="#139BFD" style="fill:#139BFD;fill:color(display-p3 0.0745 0.6078 0.9922);fill-opacity:1;"/>
<path d="M8.15012 8.67977C8.03012 8.52977 7.97012 8.34977 7.96012 8.16977C7.94012 7.77977 8.32012 7.48977 8.69012 7.60977C8.97012 7.69977 9.13012 7.90977 9.18012 7.98977C9.33012 7.84977 9.43012 7.75977 9.44012 7.75977C9.40012 7.68977 9.15012 7.27977 8.64012 7.10977C8.06012 6.91977 7.47012 7.37977 7.50012 7.98977C7.52012 8.26977 7.61012 8.54977 7.80012 8.78977C7.89012 8.90977 7.99012 9.00977 8.11012 9.08977C8.16012 9.02977 8.23012 8.94977 8.32012 8.84977C8.26012 8.79977 8.20012 8.74977 8.16012 8.68977L8.15012 8.67977Z" fill="#139BFD" style="fill:#139BFD;fill:color(display-p3 0.0745 0.6078 0.9922);fill-opacity:1;"/>
<path d="M15.9004 8.67977C16.0204 8.52977 16.0804 8.34977 16.0904 8.16977C16.1104 7.77977 15.7304 7.48977 15.3604 7.60977C15.0804 7.69977 14.9204 7.90977 14.8704 7.98977C14.7204 7.84977 14.6204 7.75977 14.6104 7.75977C14.6504 7.68977 14.9004 7.27977 15.4104 7.10977C15.9904 6.91977 16.5804 7.37977 16.5504 7.98977C16.5304 8.26977 16.4404 8.54977 16.2504 8.78977C16.1604 8.90977 16.0604 9.00977 15.9404 9.08977C15.8904 9.02977 15.8204 8.94977 15.7304 8.84977C15.7904 8.79977 15.8504 8.74977 15.8904 8.68977L15.9004 8.67977Z" fill="#139BFD" style="fill:#139BFD;fill:color(display-p3 0.0745 0.6078 0.9922);fill-opacity:1;"/>
<path d="M19.44 14.5802C17.44 13.4902 18.96 11.0402 18.11 9.80018C18.48 10.1602 19.53 10.4602 19.41 10.3602C18.24 9.52018 18.79 6.09018 15.1 5.49018C15.65 5.20018 17 5.58018 17 5.58018C16.59 4.96018 15.86 4.74018 15.25 4.68018L14.78 5.97018C16.27 6.33018 17.41 7.41018 18.18 9.35018C18.11 9.26018 17.73 8.95018 17.16 8.67018C17.37 9.21018 17.48 10.1402 17.52 11.4102C17.53 11.9202 17.65 13.1102 17.94 13.6102C17.17 13.2802 16.7 12.2902 16.76 11.2502C16.27 12.0602 17.28 14.4402 16.78 15.7702C16.71 14.9502 16.33 13.9202 15.86 13.5202C16.15 14.7202 15.96 15.6502 15.26 16.8602C15.26 16.8602 15.39 15.0702 14.96 14.6302C14.74 17.0102 13.39 17.6902 12.83 18.0602C12.54 18.2502 12.24 18.4502 11.99 18.6802L11.97 18.7002H11.96C11.96 18.7002 11.93 18.6902 11.92 18.6702C11.68 18.4602 11.37 18.2302 11.11 18.0602C10.55 17.6902 9.21 17.0102 8.98 14.6302C8.55 15.0702 8.69 16.8602 8.68 16.8602C7.98 15.6502 7.79 14.7202 8.08 13.5202C7.61 13.9202 7.22 14.9502 7.16 15.7702C6.66 14.4402 7.67 12.0602 7.18 11.2502C7.24 12.2802 6.77 13.2702 6 13.6102C6.29 13.1002 6.42 11.9102 6.42 11.4102C6.42 10.3602 6.46 9.34018 6.67 8.73018C6.16 9.00018 5.83 9.28018 5.76 9.36018C6.54 7.42018 7.69 6.33018 9.19 5.98018L8.72 4.70018C8.1 4.76018 7.36 4.97018 6.94 5.61018C6.94 5.61018 8.29 5.23018 8.84 5.52018C5.16 6.12018 5.7 9.54018 4.53 10.3902C4.4 10.4802 5.46 10.1902 5.83 9.83018C4.98 11.0702 6.5 13.5202 4.5 14.6102C4.5 14.6102 5.41 14.7802 6.6 13.6902C6.6 13.6902 5.59 15.9402 7.7 17.2102C7.7 17.2102 7.33 16.6002 7.7 15.5702C7.7 15.5702 7.81 17.9802 9.52 18.2702C9.52 18.2702 8.95 18.0502 9.2 17.0102C9.67 18.3402 11.65 18.7502 11.96 19.7602C11.96 19.7702 11.96 19.7902 11.97 19.8002C11.97 19.7902 11.97 19.7702 11.98 19.7602C12.28 18.7502 14.27 18.3402 14.74 17.0102C14.99 18.0502 14.42 18.2702 14.42 18.2702C16.13 17.9802 16.24 15.5702 16.24 15.5702C16.61 16.5902 16.24 17.2102 16.24 17.2102C18.36 15.9502 17.34 13.6902 17.34 13.6902C18.53 14.7802 19.44 14.6102 19.44 14.6102V14.5802Z" fill="#139BFD" style="fill:#139BFD;fill:color(display-p3 0.0745 0.6078 0.9922);fill-opacity:1;"/>
<path d="M14.7797 3.2698C14.4097 3.6398 14.1997 4.1698 14.2297 4.5998L14.2497 4.9198C14.2597 5.0798 14.1897 5.2398 14.0697 5.3498L13.8897 5.5098C13.6897 5.6898 13.4297 5.6298 13.3697 5.3898V5.35981C13.3297 5.23981 13.3697 5.0898 13.4497 4.9698L13.5397 4.8398C13.6897 4.6398 13.7497 4.3598 13.6997 4.1198L13.5897 3.5798L13.2297 4.0098C13.0597 4.2098 12.9797 4.4698 13.0097 4.7098L13.0297 4.9198C13.0397 5.0398 13.0097 5.1698 12.9397 5.2598C12.7597 5.4998 12.4397 5.4598 12.3497 5.1798C12.2397 4.8398 12.2597 4.4198 12.4197 4.0398L12.4997 3.8398C12.7597 3.2098 12.7297 2.3498 12.3497 1.6998L11.9697 1.0498L11.5897 1.6998C11.2097 2.3498 11.1797 3.2098 11.4397 3.8398L11.5197 4.0398C11.6797 4.4298 11.6997 4.8398 11.5897 5.1798C11.4997 5.4598 11.1797 5.4998 10.9997 5.2598C10.9297 5.1598 10.8897 5.0398 10.9097 4.9198L10.9297 4.7098C10.9497 4.4698 10.8697 4.2098 10.7097 4.0098L10.3497 3.5798L10.2397 4.1198C10.1897 4.3598 10.2497 4.6398 10.3997 4.8398L10.4897 4.9698C10.5697 5.0898 10.6097 5.22981 10.5797 5.35981V5.3898C10.5197 5.6298 10.2597 5.6898 10.0597 5.5098L9.87969 5.3498C9.75969 5.2398 9.68969 5.0698 9.69969 4.9198L9.71969 4.5998C9.74969 4.1698 9.53969 3.6398 9.16969 3.2698L8.42969 2.5498L9.71969 6.0898C9.77969 6.2498 9.89969 6.37981 10.0597 6.43981C10.4997 6.59981 11.1397 6.77981 11.9097 6.77981C12.7297 6.77981 13.3997 6.60981 13.8497 6.43981C14.0097 6.37981 14.1397 6.2498 14.1997 6.0898C14.6297 4.9098 15.0597 3.7298 15.4897 2.5498L14.7497 3.2698H14.7797Z" fill="#139BFD" style="fill:#139BFD;fill:color(display-p3 0.0745 0.6078 0.9922);fill-opacity:1;"/>
<path d="M14.3203 13.5399C14.6803 13.6099 15.0003 13.7299 15.3103 13.8799C15.0603 13.6599 14.7203 13.5099 14.3503 13.4399C14.3203 13.4399 14.2803 13.4299 14.2503 13.4199C14.2503 13.3499 14.2503 13.2699 14.2303 13.1999C13.7203 13.1399 13.2803 13.1299 13.2303 13.1399C13.2303 13.1399 13.2303 13.1399 13.2403 13.1399C13.6203 13.0699 13.9303 13.0599 14.2503 13.0799C14.5903 13.1099 14.9003 13.1799 15.2003 13.2999C14.9503 13.1099 14.6103 13.0099 14.2603 12.9699C14.2103 12.9699 14.1703 12.9699 14.1203 12.9699C14.0503 12.8499 13.9603 12.7499 13.9003 12.6199C13.8103 12.4099 13.8303 12.1599 13.9503 11.9699C14.0703 11.7799 14.2903 11.6599 14.5203 11.6499C14.5203 11.6499 14.0503 11.9499 14.1703 12.3599C14.2403 12.6199 14.4003 12.7699 14.4903 12.9999C14.6003 12.7799 14.7603 12.5199 15.0703 12.2499C15.6103 11.7699 15.7803 10.9699 15.6203 10.2799C15.4103 9.33987 14.6303 8.57987 13.6903 8.39987C14.1203 8.33987 14.4303 8.32987 14.4303 8.32987C13.0903 7.18987 12.2603 7.96987 11.9503 9.43987C11.6603 8.00987 10.7903 7.16987 9.45028 8.32987C9.51028 8.32987 9.80028 8.33987 10.1803 8.38987C9.00028 8.45987 7.29028 10.5099 8.84028 12.2299C9.14028 12.4899 9.31028 12.7399 9.41028 12.9599C9.50028 12.7399 9.65028 12.5899 9.72028 12.3299C9.84028 11.9199 9.37028 11.6199 9.37028 11.6199C9.60028 11.6199 9.82028 11.7499 9.94028 11.9399C10.0603 12.1299 10.0803 12.3799 9.99028 12.5899C9.93028 12.7199 9.85028 12.8199 9.77028 12.9399C9.68028 12.9399 9.58028 12.9399 9.49028 12.9399C9.14028 12.9699 8.81028 13.0799 8.55028 13.2699C8.85028 13.1599 9.16028 13.0799 9.50028 13.0499C9.82028 13.0299 10.1403 13.0399 10.5103 13.1099C10.5103 13.1099 10.5103 13.1099 10.5203 13.1099C10.4703 13.1099 10.1103 13.1099 9.66028 13.1599C9.64028 13.2299 9.64028 13.2999 9.64028 13.3699C9.56028 13.3699 9.48028 13.3899 9.40028 13.4099C9.03028 13.4899 8.69028 13.6299 8.44028 13.8499C8.74028 13.6999 9.07028 13.5799 9.43028 13.5099C9.77028 13.4399 10.1103 13.4099 10.5203 13.4399C10.5203 13.4399 10.5203 13.4399 10.5303 13.4399C10.4803 13.4399 10.1203 13.4899 9.67028 13.5799C9.67028 13.5999 9.68028 13.6199 9.69028 13.6399C9.69028 13.6399 9.69028 13.6399 9.69028 13.6499C9.73028 13.6999 9.77028 13.7499 9.81028 13.7999C9.72028 13.8199 9.64028 13.8399 9.55028 13.8699C9.22028 13.9799 8.92028 14.1699 8.72028 14.4099C8.98028 14.2299 9.27028 14.0799 9.59028 13.9699C9.90028 13.8699 10.2103 13.8099 10.5903 13.7799C10.5903 13.7799 10.5903 13.7799 10.6003 13.7799C10.5603 13.7799 10.3103 13.8499 9.98028 13.9599C10.5703 14.4099 11.3803 14.1199 11.9203 13.6799C12.4503 14.1099 13.2303 14.3899 13.8103 13.9999C13.4303 13.8699 13.1403 13.7899 13.0903 13.7899C13.0903 13.7899 13.0903 13.7899 13.1003 13.7899C13.4803 13.8099 13.7903 13.8699 14.1003 13.9799C14.4203 14.0899 14.7103 14.2399 14.9703 14.4199C14.7703 14.1799 14.4703 13.9899 14.1403 13.8799C14.1003 13.8699 14.0503 13.8499 14.0103 13.8399C14.0503 13.7999 14.0803 13.7599 14.1203 13.7099C14.1303 13.6899 14.1403 13.6699 14.1503 13.6399C14.1503 13.6399 14.1503 13.6199 14.1503 13.6099C13.6403 13.4899 13.2203 13.4299 13.1603 13.4399C13.1603 13.4399 13.1603 13.4399 13.1703 13.4399C13.5803 13.4199 13.9203 13.4399 14.2603 13.5099L14.3203 13.5399ZM10.6903 10.5899C10.3703 10.7299 10.1203 10.5899 9.98028 10.3899C9.91028 10.2799 9.77028 10.1899 9.64028 10.1799H9.22028C9.22028 10.1799 9.93028 9.82987 10.3503 9.91987C10.4903 9.94987 10.6403 10.0199 10.7803 10.1199C10.9103 10.2199 11.0703 10.2699 11.2303 10.2399C11.5203 10.1899 11.5603 9.83987 11.5603 9.83987C11.5603 9.83987 11.6703 10.3599 11.2703 10.4899C11.1903 10.5199 11.1203 10.5199 11.0603 10.5099C11.1003 10.6299 11.1003 10.7599 11.0603 10.9099C10.9103 11.4799 10.7503 11.6199 10.7603 11.9199C10.5503 11.6799 10.9003 10.8299 10.6803 10.5999L10.6903 10.5899ZM13.1203 12.4299C13.0803 12.8199 12.7703 13.0099 12.5103 13.0099C12.5703 12.9599 12.6603 12.8899 12.7003 12.7999C12.7503 12.6999 12.6803 12.6299 12.5703 12.6699C12.2903 12.7599 12.1003 12.9499 12.0303 13.2699C12.0303 13.2699 12.0003 13.3999 11.9703 13.5499C11.9703 13.5699 11.9703 13.5799 11.9603 13.5999C11.9603 13.5799 11.9603 13.5699 11.9503 13.5499C11.9203 13.3899 11.8903 13.2699 11.8903 13.2699C11.8203 12.9499 11.6303 12.7599 11.3503 12.6699C11.2503 12.6299 11.1703 12.6999 11.2203 12.7999C11.2603 12.8799 11.3403 12.9599 11.4103 13.0099C11.1503 13.0099 10.8403 12.8199 10.8003 12.4299C10.8003 12.3399 10.8003 12.1799 10.8303 12.0899C10.8303 12.0899 10.8903 12.3299 11.1303 12.2699C11.5403 12.1699 11.7203 12.4199 11.9503 12.4899C12.1803 12.4199 12.3603 12.1699 12.7703 12.2699C13.0103 12.3299 13.0703 12.0899 13.0703 12.0899C13.1003 12.1799 13.1103 12.3399 13.1003 12.4299H13.1203ZM13.2103 10.5899C12.9903 10.8199 13.3503 11.6799 13.1303 11.9099C13.1303 11.6099 12.9803 11.4799 12.8303 10.8999C12.7903 10.7499 12.8003 10.6199 12.8303 10.4999C12.7703 10.5099 12.6903 10.4999 12.6203 10.4799C12.2203 10.3399 12.3303 9.82987 12.3303 9.82987C12.3303 9.82987 12.4303 10.1899 12.6603 10.2299C12.8403 10.2599 12.9603 10.2299 13.0203 10.1899C13.1703 10.0399 13.3703 9.94987 13.5403 9.90987C13.9603 9.81987 14.6703 10.1899 14.6703 10.1899H14.2503C14.1203 10.1899 13.9903 10.2799 13.9103 10.3899C13.7803 10.5899 13.5303 10.7299 13.2003 10.5899H13.2103Z" fill="#139BFD" style="fill:#139BFD;fill:color(display-p3 0.0745 0.6078 0.9922);fill-opacity:1;"/>
</svg>
